<?xml version="1.0" encoding="UTF-8"?>
<svg width="1080" height="2400" viewBox="0 0 1080 2400" fill="none" xmlns="http://www.w3.org/2000/svg">
  <defs>
    <filter id="cardShadow" x="-20%" y="-20%" width="140%" height="150%" color-interpolation-filters="sRGB">
      <feDropShadow dx="0" dy="16" stdDeviation="24" flood-color="#1C1B1F" flood-opacity="0.08"/>
      <feDropShadow dx="0" dy="2" stdDeviation="7" flood-color="#C2185B" flood-opacity="0.12"/>
    </filter>
    <filter id="tealShadow" x="-20%" y="-20%" width="140%" height="150%" color-interpolation-filters="sRGB">
      <feDropShadow dx="0" dy="12" stdDeviation="20" flood-color="#004D40" flood-opacity="0.14"/>
    </filter>
    <linearGradient id="bgGlow" x1="100" y1="0" x2="980" y2="800" gradientUnits="userSpaceOnUse">
      <stop stop-color="#FFF0F5"/>
      <stop offset="0.35" stop-color="#E0F2F1" stop-opacity="0.35"/>
      <stop offset="0.55" stop-color="#FFFBFE"/>
      <stop offset="1" stop-color="#FCE4EC"/>
    </linearGradient>
    <linearGradient id="heroGradient" x1="72" y1="120" x2="1008" y2="420" gradientUnits="userSpaceOnUse">
      <stop stop-color="#C2185B"/>
      <stop offset="0.5" stop-color="#E91E63"/>
      <stop offset="1" stop-color="#F8BBD0"/>
    </linearGradient>
    <linearGradient id="protocolGradient" x1="72" y1="0" x2="1008" y2="200" gradientUnits="userSpaceOnUse">
      <stop stop-color="#004D40"/>
      <stop offset="0.45" stop-color="#00796B"/>
      <stop offset="1" stop-color="#26A69A"/>
    </linearGradient>
    <style type="text/css"><![CDATA[
      .appTitle { font-family: Inter, Roboto, Arial, sans-serif; font-size: 36px; font-weight: 800; fill: #1C1B1F; }
      .section { font-family: Inter, Roboto, Arial, sans-serif; font-size: 21px; font-weight: 760; letter-spacing: 3px; fill: #C2185B; }
      .headline { font-family: Inter, Roboto, Arial, sans-serif; font-size: 44px; font-weight: 800; letter-spacing: -0.8px; fill: #1C1B1F; }
      .subtitle { font-family: Inter, Roboto, Arial, sans-serif; font-size: 28px; font-weight: 450; fill: #625B71; }
      .heroTitle { font-family: Inter, Roboto, Arial, sans-serif; font-size: 40px; font-weight: 830; fill: #FFFFFF; }
      .heroBody { font-family: Inter, Roboto, Arial, sans-serif; font-size: 26px; font-weight: 450; fill: #FFFFFF; opacity: 0.92; }
      .cardTitle { font-family: Inter, Roboto, Arial, sans-serif; font-size: 28px; font-weight: 740; fill: #1C1B1F; }
      .cardTitleLight { font-family: Inter, Roboto, Arial, sans-serif; font-size: 32px; font-weight: 800; fill: #FFFFFF; }
      .cardCaption { font-family: Inter, Roboto, Arial, sans-serif; font-size: 20px; font-weight: 470; fill: #625B71; }
      .cardCaptionLight { font-family: Inter, Roboto, Arial, sans-serif; font-size: 22px; font-weight: 450; fill: #FFFFFF; opacity: 0.9; }
      .caption { font-family: Inter, Roboto, Arial, sans-serif; font-size: 21px; font-weight: 470; fill: #625B71; }
      .premiumText { font-family: Inter, Roboto, Arial, sans-serif; font-size: 26px; font-weight: 720; fill: #880E4F; }
    ]]></style>
  </defs>

  <rect width="1080" height="2400" fill="url(#bgGlow)"/>
  <circle cx="900" cy="140" r="220" fill="#F8BBD0" opacity="0.42"/>
  <circle cx="120" cy="600" r="170" fill="#FCE4EC" opacity="0.45"/>
  <circle cx="960" cy="1750" r="200" fill="#B2DFDB" opacity="0.35"/>
  <circle cx="960" cy="2100" r="280" fill="#FCE4EC" opacity="0.3"/>

  <rect x="0" y="0" width="1080" height="96" fill="#FFFBFE" opacity="0.7"/>
  <text x="78" y="62" class="caption" fill="#1C1B1F">9:41</text>
  <rect x="892" y="43" width="58" height="22" rx="8" stroke="#1C1B1F" stroke-width="3" opacity="0.72"/>
  <rect x="955" y="49" width="6" height="10" rx="3" fill="#1C1B1F" opacity="0.72"/>
  <rect x="900" y="49" width="40" height="10" rx="5" fill="#1C1B1F" opacity="0.72"/>

  <text x="72" y="168" class="appTitle">Love Tester</text>
  <text x="72" y="210" class="section">EKRAN 33 / HUB + PROTOCOL</text>
  <g transform="translate(960 156)">
    <circle cx="0" cy="0" r="40" fill="#FCE4EC"/>
    <circle cx="0" cy="0" r="22" fill="none" stroke="#C2185B" stroke-width="4"/>
    <circle cx="0" cy="0" r="8" fill="#C2185B"/>
    <path d="M0 -14 L0 6 M-10 16 A12 12 0 0 0 10 16" stroke="#C2185B" stroke-width="4" stroke-linecap="round" fill="none"/>
  </g>

  <rect x="72" y="240" width="936" height="280" rx="46" fill="url(#heroGradient)" filter="url(#cardShadow)"/>
  <path d="M120 460 C240 360 360 500 500 400 C640 300 760 420 900 340" stroke="#FFFFFF" stroke-width="14" stroke-linecap="round" opacity="0.35" fill="none"/>
  <path d="M148 420 C148 388 176 368 200 388 C224 368 252 388 252 420 C252 456 200 492 200 492 C200 492 148 456 148 420 Z" fill="#FFFFFF" opacity="0.9" transform="translate(800 80) scale(0.7)"/>
  <text x="120" y="320" class="heroTitle">&#1055;&#1088;&#1080;&#1074;&#1077;&#1090;!</text>
  <text x="120" y="372" class="heroBody">&#1050;&#1086;&#1075;&#1076;&#1072; &#1085;&#1091;&#1078;&#1085;&#1086; &#1091;&#1079;&#1085;&#1072;&#1090;&#1100; % &#1083;&#1102;&#1073;&#1074;&#1080; &#8212;</text>
  <text x="120" y="408" class="heroBody">&#1085;&#1072;&#1095;&#1085;&#1080;&#1090;&#1077; &#1089; &#1075;&#1083;&#1072;&#1074;&#1085;&#1086;&#1075;&#1086; &#1090;&#1077;&#1089;&#1090;&#1072;.</text>
  <rect x="120" y="440" width="200" height="48" rx="24" fill="#FFFFFF" opacity="0.22"/>
  <text x="144" y="472" style="font-family: Inter, Roboto, Arial, sans-serif; font-size: 22px; font-weight: 760; fill: #FFFFFF;">&#1055;&#1086;&#1087;&#1091;&#1083;&#1103;&#1088;&#1085;&#1086;</text>

  <rect x="72" y="548" width="936" height="112" rx="32" fill="#FCE4EC" filter="url(#cardShadow)"/>
  <path d="M120 600 C120 582 134 570 148 582 C162 570 176 582 176 600 C176 622 148 638 148 638 C148 638 120 622 120 600 Z" fill="#C2185B"/>
  <text x="200" y="596" class="premiumText">Premium &#8212; &#1073;&#1077;&#1079; &#1088;&#1077;&#1082;&#1083;&#1072;&#1084;&#1099;</text>
  <text x="200" y="632" class="caption" fill="#880E4F">&#1054;&#1090;&#1082;&#1088;&#1099;&#1090;&#1100; paywall</text>
  <path d="M920 610 L940 610 L930 628 Z" fill="#C2185B" transform="rotate(90 930 619)"/>

  <text x="72" y="720" class="headline">&#1058;&#1077;&#1089;&#1090;&#1099;</text>
  <text x="72" y="764" class="subtitle">8 &#1088;&#1077;&#1078;&#1080;&#1084;&#1086;&#1074; &#8212; &#1074;&#1099;&#1073;&#1077;&#1088;&#1080;&#1090;&#1077; &#1080; &#1087;&#1086;&#1083;&#1091;&#1095;&#1080;&#1090;&#1077; &#1088;&#1077;&#1079;&#1091;&#1083;&#1100;&#1090;&#1072;&#1090;</text>

  <rect x="72" y="800" width="936" height="200" rx="38" fill="url(#heroGradient)" filter="url(#cardShadow)"/>
  <rect x="72" y="800" width="936" height="200" rx="38" fill="none" stroke="#FFFFFF" stroke-width="4" opacity="0.35"/>
  <path d="M120 880 C120 858 142 842 160 858 C178 842 200 858 200 880 C200 908 160 932 160 932 C160 932 120 908 120 880 Z" fill="#FFFFFF"/>
  <text x="220" y="888" class="cardTitleLight">&#1058;&#1077;&#1089;&#1090; &#1085;&#1072; &#1083;&#1102;&#1073;&#1086;&#1074;&#1100;</text>
  <text x="220" y="932" class="cardCaptionLight">&#1044;&#1074;&#1072; &#1080;&#1084;&#1077;&#1085;&#1080; &#8594; &#1087;&#1088;&#1086;&#1094;&#1077;&#1085;&#1090; &#1089;&#1086;&#1074;&#1084;&#1077;&#1089;&#1090;&#1080;&#1084;&#1086;&#1089;&#1090;&#1080;</text>
  <rect x="820" y="870" width="140" height="56" rx="28" fill="#FFFFFF"/>
  <text x="890" y="906" text-anchor="middle" style="font-family: Inter, Roboto, Arial, sans-serif; font-size: 24px; font-weight: 800; fill: #C2185B;">GO</text>

  <rect x="72" y="1032" width="450" height="176" rx="32" fill="#FFFBFE" filter="url(#cardShadow)"/>
  <rect x="108" y="1072" width="56" height="56" rx="18" fill="#FCE4EC"/>
  <text x="132" y="1112" style="font-family: Inter, Roboto, Arial, sans-serif; font-size: 28px; font-weight: 700; fill: #C2185B;">%</text>
  <text x="188" y="1108" class="cardTitle">&#1050;&#1072;&#1083;&#1100;&#1082;&#1091;&#1083;&#1103;&#1090;&#1086;&#1088;</text>
  <text x="188" y="1144" class="cardCaption">&#1055;&#1086; &#1080;&#1084;&#1077;&#1085;&#1072;&#1084;</text>

  <rect x="558" y="1032" width="450" height="176" rx="32" fill="#FFFBFE" filter="url(#cardShadow)"/>
  <rect x="594" y="1072" width="56" height="56" rx="18" fill="#FCE4EC"/>
  <circle cx="622" cy="1100" r="18" fill="none" stroke="#C2185B" stroke-width="4"/>
  <text x="674" y="1108" class="cardTitle">&#1055;&#1072;&#1088;&#1072;</text>
  <text x="674" y="1144" class="cardCaption">&#1044;&#1074;&#1072; &#1080;&#1084;&#1077;&#1085;&#1080;</text>

  <rect x="72" y="1232" width="450" height="176" rx="32" fill="#FFFBFE" filter="url(#cardShadow)"/>
  <rect x="108" y="1272" width="56" height="56" rx="18" fill="#FCE4EC"/>
  <path d="M124 1296 L154 1276 L184 1296 L154 1332 Z" fill="#C2185B"/>
  <text x="188" y="1308" class="cardTitle">&#1055;&#1086;&#1073;&#1077;&#1076;&#1072;</text>
  <text x="188" y="1344" class="cardCaption">&#1042; &#1083;&#1102;&#1073;&#1074;&#1080;</text>

  <rect x="558" y="1232" width="450" height="176" rx="32" fill="#FFFBFE" filter="url(#cardShadow)"/>
  <rect x="594" y="1272" width="56" height="56" rx="18" fill="#FCE4EC"/>
  <text x="614" y="1312" style="font-family: Inter, Roboto, Arial, sans-serif; font-size: 24px; font-weight: 800; fill: #C2185B;">Aa</text>
  <text x="674" y="1308" class="cardTitle">&#1055;&#1086; &#1073;&#1091;&#1082;&#1074;&#1072;&#1084;</text>
  <text x="674" y="1344" class="cardCaption">&#1057;&#1080;&#1084;&#1074;&#1086;&#1083;&#1099;</text>

  <rect x="72" y="1432" width="450" height="176" rx="32" fill="#FFFBFE" filter="url(#cardShadow)"/>
  <rect x="108" y="1472" width="56" height="56" rx="18" fill="#FCE4EC"/>
  <circle cx="136" cy="1500" r="16" fill="none" stroke="#C2185B" stroke-width="4"/>
  <path d="M136 1486 L136 1476 M136 1524 L136 1534 M118 1500 L108 1500 M154 1500 L164 1500" stroke="#C2185B" stroke-width="3" stroke-linecap="round"/>
  <text x="188" y="1508" class="cardTitle">&#1050;&#1086;&#1083;&#1077;&#1089;&#1086;</text>
  <text x="188" y="1544" class="cardCaption">&#1057;&#1083;&#1091;&#1095;&#1072;&#1081;&#1085;&#1086;&#1089;&#1090;&#1100;</text>

  <rect x="558" y="1432" width="450" height="176" rx="32" fill="#FFFBFE" filter="url(#cardShadow)"/>
  <rect x="594" y="1472" width="56" height="56" rx="18" fill="#FCE4EC"/>
  <circle cx="622" cy="1500" r="18" fill="none" stroke="#C2185B" stroke-width="4"/>
  <text x="674" y="1508" class="cardTitle">&#1047;&#1086;&#1076;&#1080;&#1072;&#1082;</text>
  <text x="674" y="1544" class="cardCaption">&#1044;&#1074;&#1072; &#1079;&#1085;&#1072;&#1082;&#1072;</text>

  <!-- Protocol featured card -->
  <rect x="72" y="1640" width="936" height="200" rx="38" fill="url(#protocolGradient)" filter="url(#tealShadow)"/>
  <rect x="72" y="1640" width="936" height="200" rx="38" fill="none" stroke="#FFFFFF" stroke-width="4" opacity="0.28"/>

  <rect x="120" y="1688" width="56" height="56" rx="18" fill="#FFFFFF" opacity="0.22"/>
  <rect x="132" y="1704" width="32" height="8" rx="3" fill="#FFFFFF" opacity="0.85"/>
  <rect x="132" y="1720" width="24" height="8" rx="3" fill="#FFFFFF" opacity="0.65"/>
  <rect x="132" y="1736" width="28" height="8" rx="3" fill="#FFFFFF" opacity="0.75"/>
  <circle cx="128" cy="1708" r="8" fill="#E8F5E9"/>
  <path d="M124 1708 L127 1711 L134 1704" stroke="#2E7D32" stroke-width="2.5" stroke-linecap="round" fill="none"/>

  <text x="200" y="1728" class="cardTitleLight">&#1055;&#1088;&#1086;&#1090;&#1086;&#1082;&#1086;&#1083; &#1083;&#1102;&#1073;&#1074;&#1080;</text>
  <text x="200" y="1772" class="cardCaptionLight">3 &#1096;&#1072;&#1075;&#1072; &#8594; &#1089;&#1080;&#1075;&#1085;&#1072;&#1083;&#1099; &#8594; &#1087;&#1077;&#1088;&#1089;&#1086;&#1085;&#1072;&#1083;&#1100;&#1085;&#1099;&#1081; &#1074;&#1077;&#1088;&#1076;&#1080;&#1082;&#1090;</text>

  <rect x="200" y="1788" width="120" height="36" rx="18" fill="#FFFFFF" opacity="0.22"/>
  <text x="260" y="1814" text-anchor="middle" style="font-family: Inter, Roboto, Arial, sans-serif; font-size: 20px; font-weight: 800; fill: #FFFFFF;">&#1058;&#1077;&#1089;&#1090; &#8470;8</text>

  <rect x="120" y="1660" width="112" height="40" rx="20" fill="#FFFFFF"/>
  <text x="176" y="1688" text-anchor="middle" style="font-family: Inter, Roboto, Arial, sans-serif; font-size: 20px; font-weight: 800; fill: #00796B;">&#1053;&#1054;&#1042;&#1054;&#1045;</text>

  <rect x="820" y="1710" width="140" height="56" rx="28" fill="#FFFFFF"/>
  <text x="890" y="1746" text-anchor="middle" style="font-family: Inter, Roboto, Arial, sans-serif; font-size: 24px; font-weight: 800; fill: #00796B;">GO</text>

  <!-- Share hint -->
  <rect x="72" y="1872" width="936" height="120" rx="32" fill="#FFFBFE" filter="url(#cardShadow)"/>
  <rect x="120" y="1912" width="48" height="48" rx="14" fill="#FCE4EC"/>
  <path d="M132 1928 L148 1916 L164 1928 L148 1948 Z" fill="#C2185B"/>
  <text x="192" y="1928" class="cardTitle" style="font-size: 26px;">&#1055;&#1086;&#1076;&#1077;&#1083;&#1080;&#1090;&#1100;&#1089;&#1103; &#1088;&#1077;&#1079;&#1091;&#1083;&#1100;&#1090;&#1072;&#1090;&#1086;&#1084;</text>
  <text x="192" y="1964" class="cardCaption">&#1051;&#1102;&#1073;&#1086;&#1081; &#1090;&#1077;&#1089;&#1090; &#1080;&#1083;&#1080; &#1087;&#1088;&#1086;&#1090;&#1086;&#1082;&#1086;&#1083;</text>

  <rect x="0" y="2220" width="1080" height="180" fill="#FFFBFE" opacity="0.95"/>
  <line x1="0" y1="2220" x2="1080" y2="2220" stroke="#E7E0EC" stroke-width="2"/>
  <circle cx="270" cy="2320" r="28" fill="#FCE4EC"/>
  <path d="M258 2320 C258 2304 270 2294 282 2304 C294 2294 306 2304 306 2320 C306 2338 282 2354 282 2354 C282 2354 258 2338 258 2320 Z" fill="#C2185B"/>
  <text x="270" y="2370" text-anchor="middle" class="caption" fill="#C2185B">&#1058;&#1077;&#1089;&#1090;&#1099;</text>
  <circle cx="540" cy="2320" r="28" fill="#E7E0EC"/>
  <text x="540" y="2370" text-anchor="middle" class="caption">Premium</text>
  <circle cx="810" cy="2320" r="28" fill="#E7E0EC"/>
  <text x="810" y="2370" text-anchor="middle" class="caption">&#1053;&#1072;&#1089;&#1090;&#1088;&#1086;&#1081;&#1082;&#1080;</text>
</svg>
