<?xml version="1.0" encoding="UTF-8"?>
<svg width="1080" height="2400" viewBox="0 0 1080 2400" fill="none" xmlns="http://www.w3.org/2000/svg">
  <defs>
    <filter id="cardShadow" x="-20%" y="-20%" width="140%" height="150%" color-interpolation-filters="sRGB">
      <feDropShadow dx="0" dy="16" stdDeviation="24" flood-color="#1C1B1F" flood-opacity="0.08"/>
      <feDropShadow dx="0" dy="2" stdDeviation="7" flood-color="#C2185B" flood-opacity="0.12"/>
    </filter>
    <linearGradient id="bgGlow" x1="100" y1="0" x2="980" y2="700" gradientUnits="userSpaceOnUse">
      <stop stop-color="#FFFBF0"/>
      <stop offset="0.5" stop-color="#FFFBFE"/>
      <stop offset="1" stop-color="#FFF8E1"/>
    </linearGradient>
    <linearGradient id="heroGradient" x1="72" y1="200" x2="1008" y2="540" gradientUnits="userSpaceOnUse">
      <stop stop-color="#C2185B"/>
      <stop offset="0.45" stop-color="#E91E63"/>
      <stop offset="1" stop-color="#FFB74D"/>
    </linearGradient>
    <linearGradient id="trophyGold" x1="0" y1="0" x2="1" y2="1">
      <stop stop-color="#FFD54F"/>
      <stop offset="1" stop-color="#FF8F00"/>
    </linearGradient>
    <style type="text/css"><![CDATA[
      .section { font-family: Inter, Roboto, Arial, sans-serif; font-size: 21px; font-weight: 760; letter-spacing: 3px; fill: #C2185B; }
      .headline { font-family: Inter, Roboto, Arial, sans-serif; font-size: 48px; font-weight: 800; letter-spacing: -1px; fill: #1C1B1F; }
      .body { font-family: Inter, Roboto, Arial, sans-serif; font-size: 28px; font-weight: 450; fill: #625B71; }
      .heroTitle { font-family: Inter, Roboto, Arial, sans-serif; font-size: 36px; font-weight: 830; fill: #FFFFFF; }
      .heroBody { font-family: Inter, Roboto, Arial, sans-serif; font-size: 24px; font-weight: 450; fill: #FFFFFF; opacity: 0.9; }
      .fieldLabel { font-family: Inter, Roboto, Arial, sans-serif; font-size: 24px; font-weight: 650; fill: #C2185B; }
      .fieldText { font-family: Inter, Roboto, Arial, sans-serif; font-size: 32px; font-weight: 520; fill: #1C1B1F; }
      .fieldHint { font-family: Inter, Roboto, Arial, sans-serif; font-size: 22px; font-weight: 450; fill: #625B71; }
      .buttonText { font-family: Inter, Roboto, Arial, sans-serif; font-size: 29px; font-weight: 760; fill: #FFFFFF; }
      .caption { font-family: Inter, Roboto, Arial, sans-serif; font-size: 21px; font-weight: 470; fill: #625B71; }
      .backText { font-family: Inter, Roboto, Arial, sans-serif; font-size: 28px; font-weight: 680; fill: #C2185B; }
    ]]></style>
  </defs>

  <rect width="1080" height="2400" fill="url(#bgGlow)"/>
  <circle cx="900" cy="180" r="160" fill="#FFE082" opacity="0.35"/>
  <circle cx="120" cy="1900" r="220" fill="#FCE4EC" opacity="0.35"/>

  <rect x="0" y="0" width="1080" height="96" fill="#FFFBFE" opacity="0.72"/>
  <text x="78" y="62" class="caption" fill="#1C1B1F">9:41</text>
  <rect x="892" y="43" width="58" height="22" rx="8" stroke="#1C1B1F" stroke-width="3" opacity="0.72"/>
  <rect x="955" y="49" width="6" height="10" rx="3" fill="#1C1B1F" opacity="0.72"/>
  <rect x="900" y="49" width="40" height="10" rx="5" fill="#1C1B1F" opacity="0.72"/>

  <g transform="translate(72 140)">
    <path d="M48 24 L12 24 L30 6 Z" fill="#C2185B" transform="rotate(-90 30 15)"/>
    <text x="72" y="36" class="backText">&#1053;&#1072;&#1079;&#1072;&#1076;</text>
  </g>
  <text x="540" y="176" text-anchor="middle" class="headline" style="font-size: 34px;">&#1055;&#1086;&#1073;&#1077;&#1076;&#1072; &#1074; &#1083;&#1102;&#1073;&#1074;&#1080;</text>
  <text x="72" y="228" class="section">EKRAN 16 / VICTORY INPUT</text>

  <!-- Hero with trophy -->
  <rect x="72" y="260" width="936" height="240" rx="46" fill="url(#heroGradient)" filter="url(#cardShadow)"/>
  <g transform="translate(820 320)">
    <path d="M-40 -20 L40 -20 L32 20 L24 60 L-24 60 L-32 20 Z" fill="url(#trophyGold)" opacity="0.95"/>
    <rect x="-48" y="60" width="96" height="12" rx="6" fill="url(#trophyGold)"/>
    <rect x="-32" y="72" width="64" height="8" rx="4" fill="#FFFFFF" opacity="0.5"/>
    <path d="M-50 -20 C-50 -36 -30 -48 0 -48 C30 -48 50 -36 50 -20" fill="none" stroke="#FFFFFF" stroke-width="6" opacity="0.4"/>
  </g>
  <path d="M760 300 L800 260 L840 300 L820 340 Z" fill="#FFFFFF" opacity="0.2"/>
  <text x="120" y="340" class="heroTitle">&#1055;&#1086;&#1073;&#1077;&#1076;&#1080;&#1090;&#1077; &#1074; &#1083;&#1102;&#1073;&#1074;&#1080;?</text>
  <text x="120" y="388" class="heroBody">&#1042;&#1074;&#1077;&#1076;&#1080;&#1090;&#1077; &#1089;&#1074;&#1086;&#1105; &#1080;&#1084;&#1103; &#8212; &#1091;&#1079;&#1085;&#1072;&#1077;&#1084;,</text>
  <text x="120" y="420" class="heroBody">&#1078;&#1076;&#1105;&#1090; &#1083;&#1080; &#1074;&#1072;&#1084; &#1089;&#1095;&#1072;&#1089;&#1090;&#1100;&#1077; &#1074; &#1086;&#1090;&#1085;&#1086;&#1096;&#1077;&#1085;&#1080;&#1103;&#1093;.</text>
  <rect x="760" y="440" width="180" height="44" rx="22" fill="#FFFFFF" opacity="0.22"/>
  <text x="850" y="472" text-anchor="middle" style="font-family: Inter, Roboto, Arial, sans-serif; font-size: 22px; font-weight: 760; fill: #FFFFFF;">&#1058;&#1077;&#1089;&#1090; &#8470;4</text>

  <!-- Outcome preview -->
  <rect x="72" y="540" width="936" height="160" rx="32" fill="#FFFBFE" filter="url(#cardShadow)"/>
  <rect x="120" y="590" width="120" height="60" rx="16" fill="#E8F5E9"/>
  <text x="180" y="630" text-anchor="middle" style="font-family: Inter, Roboto, Arial, sans-serif; font-size: 22px; font-weight: 800; fill: #2E7D32;">&#1044;&#1072;</text>
  <rect x="260" y="590" width="120" height="60" rx="16" fill="#FFF8E1"/>
  <text x="320" y="630" text-anchor="middle" style="font-family: Inter, Roboto, Arial, sans-serif; font-size: 22px; font-weight: 800; fill: #F57F17;">?</text>
  <rect x="400" y="590" width="120" height="60" rx="16" fill="#FCE4EC"/>
  <text x="460" y="630" text-anchor="middle" style="font-family: Inter, Roboto, Arial, sans-serif; font-size: 22px; font-weight: 800; fill: #C2185B;">&#1057;&#1082;&#1086;&#1088;&#1086;</text>
  <text x="560" y="630" class="fieldHint">&#8594; &#1087;&#1077;&#1088;&#1089;&#1086;&#1085;&#1072;&#1083;&#1100;&#1085;&#1099;&#1081; &#1087;&#1088;&#1086;&#1075;&#1085;&#1086;&#1079;</text>

  <!-- Form: single name -->
  <rect x="72" y="740" width="936" height="520" rx="38" fill="#FFFBFE" filter="url(#cardShadow)"/>

  <text x="120" y="820" class="fieldLabel">&#1042;&#1072;&#1096;&#1077; &#1080;&#1084;&#1103;</text>
  <rect x="120" y="840" width="840" height="96" rx="28" fill="#FFFFFF" stroke="#C2185B" stroke-width="3"/>
  <text x="152" y="902" class="fieldText">&#1054;&#1083;&#1100;&#1075;&#1072;</text>
  <rect x="860" y="868" width="72" height="40" rx="12" fill="#FFF8E1"/>
  <path d="M884 878 L896 888 L908 878" stroke="#FF8F00" stroke-width="4" stroke-linecap="round" fill="none"/>

  <text x="120" y="1000" class="fieldHint">&#1055;&#1086;&#1087;&#1091;&#1083;&#1103;&#1088;&#1085;&#1099;&#1077; &#1080;&#1084;&#1077;&#1085;&#1072;:</text>
  <rect x="120" y="1020" width="140" height="48" rx="24" fill="#FCE4EC"/>
  <text x="190" y="1052" text-anchor="middle" class="fieldHint" fill="#880E4F">&#1054;&#1083;&#1100;&#1075;&#1072;</text>
  <rect x="280" y="1020" width="160" height="48" rx="24" fill="#FCE4EC"/>
  <text x="360" y="1052" text-anchor="middle" class="fieldHint" fill="#880E4F">&#1040;&#1085;&#1072;&#1089;&#1090;&#1072;&#1089;&#1080;&#1103;</text>
  <rect x="460" y="1020" width="140" height="48" rx="24" fill="#FCE4EC"/>
  <text x="530" y="1052" text-anchor="middle" class="fieldHint" fill="#880E4F">&#1050;&#1072;&#1090;&#1103;</text>

  <rect x="120" y="1100" width="840" height="120" rx="24" fill="#FFF8E1"/>
  <text x="152" y="1150" class="body" fill="#E65100">&#1057;&#1086;&#1074;&#1077;&#1090;: &#1090;&#1077;&#1089;&#1090; &#1080;&#1075;&#1088;&#1080;&#1074;&#1099;&#1081; &#8212; &#1085;&#1077; &#1089;&#1090;&#1086;&#1080;&#1090; &#1087;&#1088;&#1080;&#1085;&#1080;&#1084;&#1072;&#1090;&#1100; &#1082;&#1072;&#1082; &#1089;&#1086;&#1074;&#1077;&#1090;.</text>
  <text x="152" y="1190" class="caption" fill="#F57F17">&#1056;&#1077;&#1079;&#1091;&#1083;&#1100;&#1090;&#1072;&#1090; &#1090;&#1086;&#1083;&#1100;&#1082;&#1086; &#1076;&#1083;&#1103; &#1088;&#1072;&#1079;&#1074;&#1083;&#1077;&#1095;&#1077;&#1085;&#1080;&#1103;.</text>

  <!-- CTA -->
  <rect x="72" y="1320" width="936" height="96" rx="48" fill="#C2185B" filter="url(#cardShadow)"/>
  <text x="540" y="1378" text-anchor="middle" class="buttonText">&#1059;&#1079;&#1085;&#1072;&#1090;&#1100; &#1089;&#1074;&#1086;&#1102; &#1087;&#1086;&#1073;&#1077;&#1076;&#1091;</text>

  <!-- Keyboard -->
  <rect x="0" y="1520" width="1080" height="520" rx="0" fill="#F3EDF7" opacity="0.95"/>
  <line x1="0" y1="1520" x2="1080" y2="1520" stroke="#E7E0EC" stroke-width="2"/>
  <text x="540" y="1580" text-anchor="middle" class="caption">&#1057;&#1080;&#1089;&#1090;&#1077;&#1084;&#1085;&#1072;&#1103; &#1082;&#1083;&#1072;&#1074;&#1080;&#1072;&#1090;&#1091;&#1088;&#1072; (IME)</text>
  <rect x="48" y="1620" width="96" height="72" rx="12" fill="#FFFFFF"/>
  <rect x="160" y="1620" width="96" height="72" rx="12" fill="#FFFFFF"/>
  <rect x="272" y="1620" width="96" height="72" rx="12" fill="#FFFFFF"/>
  <rect x="384" y="1620" width="96" height="72" rx="12" fill="#FFFFFF"/>
  <rect x="496" y="1620" width="96" height="72" rx="12" fill="#FFFFFF"/>
  <rect x="608" y="1620" width="96" height="72" rx="12" fill="#FFFFFF"/>
  <rect x="720" y="1620" width="96" height="72" rx="12" fill="#FFFFFF"/>
  <rect x="832" y="1620" width="96" height="72" rx="12" fill="#FFFFFF"/>
  <rect x="780" y="1880" width="252" height="72" rx="16" fill="#C2185B" opacity="0.4"/>
  <text x="906" y="1928" text-anchor="middle" style="font-family: Inter, Roboto, Arial, sans-serif; font-size: 22px; font-weight: 700; fill: #FFFFFF;">&#1043;&#1086;&#1090;&#1086;&#1074;&#1086;</text>
</svg>
