<?xml version="1.0" encoding="UTF-8"?>
<svg width="1080" height="2400" viewBox="0 0 1080 2400" fill="none" xmlns="http://www.w3.org/2000/svg">
  <defs>
    <filter id="cardShadow" x="-20%" y="-20%" width="140%" height="150%" color-interpolation-filters="sRGB">
      <feDropShadow dx="0" dy="16" stdDeviation="24" flood-color="#1C1B1F" flood-opacity="0.08"/>
      <feDropShadow dx="0" dy="2" stdDeviation="7" flood-color="#C2185B" flood-opacity="0.12"/>
    </filter>
    <linearGradient id="bgGlow" x1="100" y1="0" x2="980" y2="700" gradientUnits="userSpaceOnUse">
      <stop stop-color="#FFF5F8"/>
      <stop offset="0.5" stop-color="#FFFBFE"/>
      <stop offset="1" stop-color="#FCE4EC"/>
    </linearGradient>
    <linearGradient id="heroGradient" x1="72" y1="200" x2="1008" y2="540" gradientUnits="userSpaceOnUse">
      <stop stop-color="#AD1457"/>
      <stop offset="0.5" stop-color="#C2185B"/>
      <stop offset="1" stop-color="#F48FB1"/>
    </linearGradient>
    <style type="text/css"><![CDATA[
      .section { font-family: Inter, Roboto, Arial, sans-serif; font-size: 21px; font-weight: 760; letter-spacing: 3px; fill: #C2185B; }
      .headline { font-family: Inter, Roboto, Arial, sans-serif; font-size: 48px; font-weight: 800; letter-spacing: -1px; fill: #1C1B1F; }
      .body { font-family: Inter, Roboto, Arial, sans-serif; font-size: 28px; font-weight: 450; fill: #625B71; }
      .heroTitle { font-family: Inter, Roboto, Arial, sans-serif; font-size: 36px; font-weight: 830; fill: #FFFFFF; }
      .heroBody { font-family: Inter, Roboto, Arial, sans-serif; font-size: 24px; font-weight: 450; fill: #FFFFFF; opacity: 0.9; }
      .fieldLabel { font-family: Inter, Roboto, Arial, sans-serif; font-size: 24px; font-weight: 650; fill: #C2185B; }
      .fieldText { font-family: Inter, Roboto, Arial, sans-serif; font-size: 32px; font-weight: 520; fill: #1C1B1F; }
      .fieldHint { font-family: Inter, Roboto, Arial, sans-serif; font-size: 22px; font-weight: 450; fill: #625B71; }
      .buttonText { font-family: Inter, Roboto, Arial, sans-serif; font-size: 29px; font-weight: 760; fill: #FFFFFF; }
      .caption { font-family: Inter, Roboto, Arial, sans-serif; font-size: 21px; font-weight: 470; fill: #625B71; }
      .backText { font-family: Inter, Roboto, Arial, sans-serif; font-size: 28px; font-weight: 680; fill: #C2185B; }
      .avatarInitial { font-family: Inter, Roboto, Arial, sans-serif; font-size: 40px; font-weight: 800; fill: #FFFFFF; text-anchor: middle; }
    ]]></style>
  </defs>

  <rect width="1080" height="2400" fill="url(#bgGlow)"/>
  <circle cx="160" cy="220" r="140" fill="#F8BBD0" opacity="0.45"/>
  <circle cx="920" cy="1880" r="220" fill="#FCE4EC" opacity="0.4"/>

  <rect x="0" y="0" width="1080" height="96" fill="#FFFBFE" opacity="0.72"/>
  <text x="78" y="62" class="caption" fill="#1C1B1F">9:41</text>
  <rect x="892" y="43" width="58" height="22" rx="8" stroke="#1C1B1F" stroke-width="3" opacity="0.72"/>
  <rect x="955" y="49" width="6" height="10" rx="3" fill="#1C1B1F" opacity="0.72"/>
  <rect x="900" y="49" width="40" height="10" rx="5" fill="#1C1B1F" opacity="0.72"/>

  <g transform="translate(72 140)">
    <path d="M48 24 L12 24 L30 6 Z" fill="#C2185B" transform="rotate(-90 30 15)"/>
    <text x="72" y="36" class="backText">&#1053;&#1072;&#1079;&#1072;&#1076;</text>
  </g>
  <text x="540" y="176" text-anchor="middle" class="headline" style="font-size: 34px;">&#1057;&#1086;&#1074;&#1084;&#1077;&#1089;&#1090;&#1080;&#1084;&#1086;&#1089;&#1090;&#1100; &#1087;&#1072;&#1088;&#1099;</text>
  <text x="72" y="228" class="section">EKRAN 14 / PAIR INPUT</text>

  <!-- Hero: two circles motif -->
  <rect x="72" y="260" width="936" height="240" rx="46" fill="url(#heroGradient)" filter="url(#cardShadow)"/>
  <circle cx="360" cy="400" r="72" fill="#FFFFFF" opacity="0.25"/>
  <circle cx="540" cy="400" r="72" fill="#FFFFFF" opacity="0.35"/>
  <circle cx="720" cy="400" r="72" fill="#FFFFFF" opacity="0.25"/>
  <rect x="500" y="368" width="80" height="64" rx="20" fill="#FFFFFF" opacity="0.2"/>
  <path d="M528 400 L552 400" stroke="#FFFFFF" stroke-width="6" stroke-linecap="round"/>
  <path d="M540 388 L540 412" stroke="#FFFFFF" stroke-width="6" stroke-linecap="round"/>
  <text x="120" y="340" class="heroTitle">&#1044;&#1074;&#1072; &#1080;&#1084;&#1077;&#1085;&#1080; &#8212; &#1086;&#1076;&#1085;&#1072; &#1087;&#1072;&#1088;&#1072;</text>
  <text x="120" y="388" class="heroBody">&#1057;&#1088;&#1072;&#1074;&#1085;&#1080;&#1074;&#1072;&#1077;&#1084; &#1089;&#1086;&#1074;&#1084;&#1077;&#1089;&#1090;&#1080;&#1084;&#1086;&#1089;&#1090;&#1100;</text>
  <text x="120" y="420" class="heroBody">&#1080; &#1087;&#1086;&#1082;&#1072;&#1079;&#1099;&#1074;&#1072;&#1077;&#1084; &#1086;&#1073;&#1097;&#1080;&#1081; &#1087;&#1088;&#1086;&#1094;&#1077;&#1085;&#1090;.</text>
  <rect x="760" y="440" width="180" height="44" rx="22" fill="#FFFFFF" opacity="0.22"/>
  <text x="850" y="472" text-anchor="middle" style="font-family: Inter, Roboto, Arial, sans-serif; font-size: 22px; font-weight: 760; fill: #FFFFFF;">&#1058;&#1077;&#1089;&#1090; &#8470;3</text>

  <!-- Pair preview strip -->
  <rect x="72" y="540" width="936" height="140" rx="32" fill="#FFFBFE" filter="url(#cardShadow)"/>
  <circle cx="280" cy="620" r="48" fill="#FCE4EC"/>
  <text x="280" y="636" class="avatarInitial" fill="#C2185B">&#1040;</text>
  <circle cx="800" cy="620" r="48" fill="#F8BBD0"/>
  <text x="800" y="636" class="avatarInitial" fill="#880E4F">?</text>
  <path d="M360 620 C420 580 480 580 540 620 C600 660 660 660 720 620" stroke="#C2185B" stroke-width="4" stroke-linecap="round" fill="none" opacity="0.5"/>
  <circle cx="540" cy="620" r="28" fill="#C2185B"/>
  <path d="M528 620 L540 608 L552 620 L540 632 Z" fill="#FFFFFF" transform="translate(0 -4)"/>

  <!-- Form -->
  <rect x="72" y="720" width="936" height="640" rx="38" fill="#FFFBFE" filter="url(#cardShadow)"/>

  <text x="120" y="800" class="fieldLabel">&#1048;&#1084;&#1103; 1</text>
  <rect x="120" y="820" width="840" height="96" rx="28" fill="#FFFFFF" stroke="#C2185B" stroke-width="3"/>
  <text x="152" y="882" class="fieldText">&#1057;&#1086;&#1092;&#1080;&#1103;</text>
  <circle cx="280" cy="868" r="0" fill="none"/>

  <text x="120" y="980" class="fieldLabel">&#1048;&#1084;&#1103; 2</text>
  <rect x="120" y="1000" width="840" height="96" rx="28" fill="#FFFFFF" stroke="#CAC4D0" stroke-width="2"/>
  <text x="152" y="1062" class="fieldHint">&#1053;&#1072;&#1087;&#1088;&#1080;&#1084;&#1077;&#1088;, &#1044;&#1084;&#1080;&#1090;&#1088;&#1080;&#1081;&#8230;</text>

  <!-- Side-by-side mini cards -->
  <text x="120" y="1160" class="fieldHint">&#1041;&#1099;&#1089;&#1090;&#1088;&#1099;&#1081; &#1074;&#1099;&#1073;&#1086;&#1088;:</text>
  <rect x="120" y="1180" width="200" height="56" rx="28" fill="#FCE4EC"/>
  <text x="220" y="1216" text-anchor="middle" class="fieldHint" fill="#880E4F">&#1057;&#1086;&#1092;&#1080;&#1103; + &#1044;&#1080;&#1084;&#1072;</text>
  <rect x="340" y="1180" width="220" height="56" rx="28" fill="#FCE4EC"/>
  <text x="450" y="1216" text-anchor="middle" class="fieldHint" fill="#880E4F">&#1045;&#1083;&#1077;&#1085;&#1072; + &#1040;&#1083;&#1077;&#1082;&#1089;</text>

  <rect x="120" y="1260" width="840" height="72" rx="24" fill="#FCE4EC"/>
  <text x="152" y="1308" class="body" fill="#880E4F" style="font-size: 24px;">&#1055;&#1072;&#1088;&#1072; &#1085;&#1077; &#1089;&#1086;&#1093;&#1088;&#1072;&#1085;&#1103;&#1077;&#1090;&#1089;&#1103; &#1085;&#1072; &#1091;&#1089;&#1090;&#1088;&#1086;&#1081;&#1089;&#1090;&#1074;&#1077;.</text>

  <!-- CTA -->
  <rect x="72" y="1420" width="936" height="96" rx="48" fill="#C2185B" filter="url(#cardShadow)"/>
  <text x="540" y="1478" text-anchor="middle" class="buttonText">&#1055;&#1088;&#1086;&#1074;&#1077;&#1088;&#1080;&#1090;&#1100; &#1087;&#1072;&#1088;&#1091;</text>

  <!-- Keyboard -->
  <rect x="0" y="1580" width="1080" height="520" rx="0" fill="#F3EDF7" opacity="0.95"/>
  <line x1="0" y1="1580" x2="1080" y2="1580" stroke="#E7E0EC" stroke-width="2"/>
  <text x="540" y="1640" text-anchor="middle" class="caption">&#1057;&#1080;&#1089;&#1090;&#1077;&#1084;&#1085;&#1072;&#1103; &#1082;&#1083;&#1072;&#1074;&#1080;&#1072;&#1090;&#1091;&#1088;&#1072; (IME)</text>
  <rect x="48" y="1680" width="96" height="72" rx="12" fill="#FFFFFF"/>
  <rect x="160" y="1680" width="96" height="72" rx="12" fill="#FFFFFF"/>
  <rect x="272" y="1680" width="96" height="72" rx="12" fill="#FFFFFF"/>
  <rect x="384" y="1680" width="96" height="72" rx="12" fill="#FFFFFF"/>
  <rect x="496" y="1680" width="96" height="72" rx="12" fill="#FFFFFF"/>
  <rect x="608" y="1680" width="96" height="72" rx="12" fill="#FFFFFF"/>
  <rect x="720" y="1680" width="96" height="72" rx="12" fill="#FFFFFF"/>
  <rect x="832" y="1680" width="96" height="72" rx="12" fill="#FFFFFF"/>
  <rect x="780" y="1940" width="252" height="72" rx="16" fill="#C2185B" opacity="0.4"/>
  <text x="906" y="1988" text-anchor="middle" style="font-family: Inter, Roboto, Arial, sans-serif; font-size: 22px; font-weight: 700; fill: #FFFFFF;">&#1043;&#1086;&#1090;&#1086;&#1074;&#1086;</text>
</svg>
