<?xml version="1.0" encoding="UTF-8"?>
<svg width="1080" height="2400" viewBox="0 0 1080 2400" fill="none" xmlns="http://www.w3.org/2000/svg">
  <defs>
    <filter id="cardShadow" x="-20%" y="-20%" width="140%" height="150%" color-interpolation-filters="sRGB">
      <feDropShadow dx="0" dy="16" stdDeviation="24" flood-color="#1C1B1F" flood-opacity="0.08"/>
      <feDropShadow dx="0" dy="4" stdDeviation="12" flood-color="#C2185B" flood-opacity="0.14"/>
    </filter>
    <linearGradient id="bgGlow" x1="100" y1="0" x2="980" y2="900" gradientUnits="userSpaceOnUse">
      <stop stop-color="#FFF5F8"/>
      <stop offset="0.45" stop-color="#FFFBFE"/>
      <stop offset="1" stop-color="#FCE4EC"/>
    </linearGradient>
    <linearGradient id="heroGradient" x1="72" y1="200" x2="1008" y2="700" gradientUnits="userSpaceOnUse">
      <stop stop-color="#AD1457"/>
      <stop offset="0.45" stop-color="#C2185B"/>
      <stop offset="0.85" stop-color="#E91E63"/>
      <stop offset="1" stop-color="#F48FB1"/>
    </linearGradient>
    <style type="text/css"><![CDATA[
      .section { font-family: Inter, Roboto, Arial, sans-serif; font-size: 21px; font-weight: 760; letter-spacing: 3px; fill: #C2185B; }
      .localeChip { font-family: Inter, Roboto, Arial, sans-serif; font-size: 18px; font-weight: 800; fill: #FFFFFF; }
      .headline { font-family: Inter, Roboto, Arial, sans-serif; font-size: 38px; font-weight: 800; fill: #1C1B1F; text-anchor: middle; }
      .percent { font-family: Inter, Roboto, Arial, sans-serif; font-size: 108px; font-weight: 800; fill: #FFFFFF; text-anchor: middle; }
      .percentLabel { font-family: Inter, Roboto, Arial, sans-serif; font-size: 32px; font-weight: 700; fill: #FFFFFF; text-anchor: middle; opacity: 0.95; }
      .names { font-family: Inter, Roboto, Arial, sans-serif; font-size: 32px; font-weight: 740; fill: #FFFFFF; text-anchor: middle; }
      .resultTitle { font-family: Inter, Roboto, Arial, sans-serif; font-size: 36px; font-weight: 800; fill: #1C1B1F; }
      .resultBody { font-family: Inter, Roboto, Arial, sans-serif; font-size: 28px; font-weight: 450; fill: #625B71; }
      .buttonText { font-family: Inter, Roboto, Arial, sans-serif; font-size: 29px; font-weight: 760; fill: #FFFFFF; }
      .outlinedText { font-family: Inter, Roboto, Arial, sans-serif; font-size: 27px; font-weight: 680; fill: #C2185B; }
      .disclaimer { font-family: Inter, Roboto, Arial, sans-serif; font-size: 20px; font-weight: 450; fill: #625B71; text-anchor: middle; }
      .caption { font-family: Inter, Roboto, Arial, sans-serif; font-size: 21px; font-weight: 470; fill: #625B71; }
      .avatarInitial { font-family: Inter, Roboto, Arial, sans-serif; font-size: 36px; font-weight: 800; fill: #FFFFFF; text-anchor: middle; }
      .metricLabel { font-family: Inter, Roboto, Arial, sans-serif; font-size: 22px; font-weight: 650; fill: #49454F; }
      .metricValue { font-family: Inter, Roboto, Arial, sans-serif; font-size: 24px; font-weight: 800; fill: #C2185B; }
    ]]></style>
  </defs>

  <rect width="1080" height="2400" fill="url(#bgGlow)"/>
  <circle cx="880" cy="260" r="150" fill="#F8BBD0" opacity="0.5"/>
  <circle cx="140" cy="1650" r="200" fill="#FCE4EC" opacity="0.35"/>

  <rect x="0" y="0" width="1080" height="96" fill="#FFFBFE" opacity="0.72"/>
  <text x="78" y="62" class="caption" fill="#1C1B1F">9:41</text>
  <rect x="892" y="43" width="58" height="22" rx="8" stroke="#1C1B1F" stroke-width="3" opacity="0.72"/>
  <rect x="955" y="49" width="6" height="10" rx="3" fill="#1C1B1F" opacity="0.72"/>
  <rect x="900" y="49" width="40" height="10" rx="5" fill="#1C1B1F" opacity="0.72"/>

  <rect x="800" y="128" width="72" height="40" rx="20" fill="#C2185B"/>
  <text x="836" y="156" text-anchor="middle" class="localeChip">EN</text>
  <text x="540" y="168" class="headline">Pair result</text>
  <text x="72" y="218" class="section">EKRAN 51 / PAIR RESULT EN</text>

  <rect x="72" y="260" width="936" height="660" rx="48" fill="url(#heroGradient)" filter="url(#cardShadow)"/>

  <circle cx="380" cy="360" r="56" fill="#FFFFFF" opacity="0.3"/>
  <text x="380" y="376" class="avatarInitial">S</text>
  <circle cx="700" cy="360" r="56" fill="#FFFFFF" opacity="0.3"/>
  <text x="700" y="376" class="avatarInitial">D</text>
  <circle cx="540" cy="360" r="32" fill="#FFFFFF"/>
  <path d="M528 360 L540 348 L552 360 L540 372 Z" fill="#C2185B"/>

  <text x="540" y="460" class="names">Sophia + Dmitry</text>

  <circle cx="540" cy="600" r="150" fill="none" stroke="#FFFFFF" stroke-width="20" opacity="0.35"/>
  <circle cx="540" cy="600" r="150" fill="none" stroke="#FFFFFF" stroke-width="20" stroke-dasharray="700 940" stroke-linecap="round" transform="rotate(-90 540 600)"/>
  <circle cx="540" cy="600" r="120" fill="#FFFFFF" opacity="0.18"/>

  <text x="540" y="640" class="percent">74%</text>
  <text x="540" y="700" class="percentLabel">pair compatibility</text>

  <rect x="200" y="780" width="680" height="80" rx="32" fill="#FFFFFF" opacity="0.22"/>
  <text x="540" y="832" text-anchor="middle" style="font-family: Inter, Roboto, Arial, sans-serif; font-size: 28px; font-weight: 760; fill: #FFFFFF;">Great harmony</text>

  <rect x="72" y="960" width="936" height="460" rx="38" fill="#FFFBFE" filter="url(#cardShadow)"/>
  <text x="120" y="1040" class="resultTitle">Pair metrics</text>

  <text x="120" y="1110" class="metricLabel">Connection</text>
  <rect x="120" y="1124" width="760" height="16" rx="8" fill="#F3EDF7"/>
  <rect x="120" y="1124" width="608" height="16" rx="8" fill="#C2185B"/>
  <text x="920" y="1140" class="metricValue">80%</text>

  <text x="120" y="1200" class="metricLabel">Trust</text>
  <rect x="120" y="1214" width="760" height="16" rx="8" fill="#F3EDF7"/>
  <rect x="120" y="1214" width="684" height="16" rx="8" fill="#E91E63"/>
  <text x="920" y="1230" class="metricValue">90%</text>

  <text x="120" y="1290" class="metricLabel">Passion</text>
  <rect x="120" y="1304" width="760" height="16" rx="8" fill="#F3EDF7"/>
  <rect x="120" y="1304" width="456" height="16" rx="8" fill="#F48FB1"/>
  <text x="920" y="1320" class="metricValue">60%</text>

  <text x="120" y="1380" class="resultBody">Your names match by rhythm -</text>
  <text x="120" y="1424" class="resultBody">you have a steady bond.</text>

  <rect x="120" y="1360" width="200" height="48" rx="24" fill="#FCE4EC"/>
  <text x="220" y="1392" text-anchor="middle" style="font-family: Inter, Roboto, Arial, sans-serif; font-size: 22px; font-weight: 700; fill: #880E4F;">Test #3</text>

  <rect x="72" y="1480" width="936" height="88" rx="44" fill="#C2185B" filter="url(#cardShadow)"/>
  <text x="540" y="1538" text-anchor="middle" class="buttonText">Share</text>

  <rect x="72" y="1592" width="936" height="88" rx="44" fill="none" stroke="#C2185B" stroke-width="3"/>
  <text x="540" y="1650" text-anchor="middle" class="outlinedText">Another pair</text>

  <rect x="72" y="1700" width="936" height="88" rx="44" fill="#FCE4EC"/>
  <text x="540" y="1758" text-anchor="middle" style="font-family: Inter, Roboto, Arial, sans-serif; font-size: 27px; font-weight: 680; fill: #880E4F;">Back to home</text>

  <text x="540" y="1840" class="disclaimer">For entertainment only. Not a real prediction.</text>

  <rect x="72" y="1900" width="936" height="200" rx="32" fill="#FFFBFE" filter="url(#cardShadow)" stroke="#FCE4EC" stroke-width="2"/>
  <circle cx="180" cy="2000" r="48" fill="#FCE4EC"/>
  <text x="180" y="2016" class="avatarInitial" fill="#C2185B">S</text>
  <circle cx="260" cy="2000" r="48" fill="#F8BBD0"/>
  <text x="260" y="2016" class="avatarInitial" fill="#880E4F">D</text>
  <text x="340" y="1980" class="resultTitle" style="font-size: 28px;">74% - Sophia + Dmitry</text>
  <text x="340" y="2020" class="resultBody" style="font-size: 24px;">Pair compatibility - Love Tester</text>
  <text x="340" y="2060" class="caption">Share card preview</text>
</svg>
