<?xml version="1.0" encoding="UTF-8"?>
<svg width="1080" height="2400" viewBox="0 0 1080 2400" fill="none" xmlns="http://www.w3.org/2000/svg">
  <defs>
    <filter id="cardShadow" x="-20%" y="-20%" width="140%" height="150%" color-interpolation-filters="sRGB">
      <feDropShadow dx="0" dy="16" stdDeviation="24" flood-color="#1C1B1F" flood-opacity="0.08"/>
      <feDropShadow dx="0" dy="2" stdDeviation="7" flood-color="#C2185B" flood-opacity="0.12"/>
    </filter>
    <linearGradient id="bgGlow" x1="132" y1="0" x2="988" y2="850" gradientUnits="userSpaceOnUse">
      <stop stop-color="#FFF0F5"/>
      <stop offset="0.45" stop-color="#FFFBFE"/>
      <stop offset="1" stop-color="#FCE4EC"/>
    </linearGradient>
    <linearGradient id="heroGradient" x1="72" y1="320" x2="1008" y2="980" gradientUnits="userSpaceOnUse">
      <stop stop-color="#C2185B"/>
      <stop offset="0.52" stop-color="#E91E63"/>
      <stop offset="1" stop-color="#F8BBD0"/>
    </linearGradient>
    <style type="text/css"><![CDATA[
      .appTitle { font-family: Inter, Roboto, Arial, sans-serif; font-size: 34px; font-weight: 760; fill: #1C1B1F; }
      .skip { font-family: Inter, Roboto, Arial, sans-serif; font-size: 27px; font-weight: 680; fill: #C2185B; }
      .section { font-family: Inter, Roboto, Arial, sans-serif; font-size: 21px; font-weight: 760; letter-spacing: 3px; fill: #C2185B; }
      .heroKicker { font-family: Inter, Roboto, Arial, sans-serif; font-size: 23px; font-weight: 780; letter-spacing: 3px; fill: #FFFFFF; opacity: 0.88; }
      .heroTitle { font-family: Inter, Roboto, Arial, sans-serif; font-size: 52px; font-weight: 830; letter-spacing: -1.2px; fill: #FFFFFF; }
      .heroBody { font-family: Inter, Roboto, Arial, sans-serif; font-size: 28px; font-weight: 450; fill: #FFFFFF; opacity: 0.92; }
      .headline { font-family: Inter, Roboto, Arial, sans-serif; font-size: 50px; font-weight: 800; letter-spacing: -1px; fill: #1C1B1F; }
      .body { font-family: Inter, Roboto, Arial, sans-serif; font-size: 28px; font-weight: 450; fill: #625B71; }
      .cardTitle { font-family: Inter, Roboto, Arial, sans-serif; font-size: 26px; font-weight: 740; fill: #1C1B1F; }
      .cardCaption { font-family: Inter, Roboto, Arial, sans-serif; font-size: 20px; font-weight: 470; fill: #625B71; }
      .caption { font-family: Inter, Roboto, Arial, sans-serif; font-size: 21px; font-weight: 470; fill: #625B71; }
      .buttonText { font-family: Inter, Roboto, Arial, sans-serif; font-size: 29px; font-weight: 760; fill: #FFFFFF; }
    ]]></style>
  </defs>

  <rect width="1080" height="2400" fill="url(#bgGlow)"/>
  <circle cx="888" cy="168" r="246" fill="#FCE4EC" opacity="0.5"/>
  <circle cx="126" cy="826" r="204" fill="#F8BBD0" opacity="0.2"/>
  <circle cx="978" cy="2050" r="314" fill="#FCE4EC" opacity="0.32"/>

  <rect x="0" y="0" width="1080" height="96" fill="#FFFBFE" opacity="0.68"/>
  <text x="78" y="62" class="caption" fill="#1C1B1F">9:41</text>
  <rect x="892" y="43" width="58" height="22" rx="8" stroke="#1C1B1F" stroke-width="3" opacity="0.72"/>
  <rect x="955" y="49" width="6" height="10" rx="3" fill="#1C1B1F" opacity="0.72"/>
  <rect x="900" y="49" width="40" height="10" rx="5" fill="#1C1B1F" opacity="0.72"/>

  <text x="72" y="176" class="appTitle">Love Tester</text>
  <text x="906" y="176" class="skip">&#1055;&#1088;&#1086;&#1087;&#1091;&#1089;&#1090;&#1080;&#1090;&#1100;</text>

  <rect x="72" y="238" width="936" height="12" rx="6" fill="#E7E0EC"/>
  <rect x="72" y="238" width="624" height="12" rx="6" fill="#C2185B"/>
  <text x="72" y="302" class="section">EKRAN 3 / ONBOARDING</text>

  <rect x="72" y="340" width="936" height="520" rx="54" fill="url(#heroGradient)" filter="url(#cardShadow)"/>
  <circle cx="820" cy="480" r="110" fill="#FFFFFF" opacity="0.12"/>
  <text x="120" y="440" class="heroKicker">&#1052;&#1053;&#1054;&#1043;&#1054; &#1058;&#1045;&#1057;&#1058;&#1054;&#1042;</text>
  <text x="120" y="520" class="heroTitle">&#1042;&#1099;&#1073;&#1080;&#1088;&#1072;&#1081;&#1090;&#1077;</text>
  <text x="120" y="584" class="heroTitle" style="font-size: 44px;">&#1089;&#1074;&#1086;&#1081; &#1088;&#1077;&#1078;&#1080;&#1084;</text>
  <text x="120" y="660" class="heroBody">&#1058;&#1077;&#1089;&#1090; &#1083;&#1102;&#1073;&#1074;&#1080;, &#1082;&#1072;&#1083;&#1100;&#1082;&#1091;&#1083;&#1103;&#1090;&#1086;&#1088;,</text>
  <text x="120" y="698" class="heroBody">&#1079;&#1086;&#1076;&#1080;&#1072;&#1082;, &#1082;&#1086;&#1083;&#1077;&#1089;&#1086; &#1080; &#1076;&#1088;&#1091;&#1075;&#1080;&#1077;.</text>
  <rect x="120" y="760" width="260" height="56" rx="28" fill="#FFFFFF" opacity="0.2"/>
  <text x="144" y="796" style="font-family: Inter, Roboto, Arial, sans-serif; font-size: 23px; font-weight: 760; fill: #FFFFFF;">&#1057;&#1090;&#1088;&#1072;&#1085;&#1080;&#1094;&#1072; 2 &#1080;&#1079; 3</text>

  <text x="72" y="940" class="headline">&#1042;&#1089;&#1077; &#1090;&#1077;&#1089;&#1090;&#1099; &#1074; &#1086;&#1076;&#1085;&#1086;&#1084; &#1087;&#1088;&#1080;&#1083;&#1086;&#1078;&#1077;&#1085;&#1080;&#1080;</text>
  <text x="72" y="998" class="body">&#1055;&#1088;&#1086;&#1074;&#1077;&#1088;&#1100;&#1090;&#1077; &#1089;&#1077;&#1073;&#1103;, &#1087;&#1072;&#1088;&#1090;&#1085;&#1105;&#1088;&#1072; &#1080;&#1083;&#1080; &#1076;&#1088;&#1091;&#1079;&#1077;&#1081; &#8212;</text>
  <text x="72" y="1038" class="body">&#1082;&#1072;&#1078;&#1076;&#1099;&#1081; &#1088;&#1077;&#1078;&#1080;&#1084; &#1076;&#1072;&#1105;&#1090; &#1089;&#1074;&#1086;&#1081; &#1088;&#1077;&#1079;&#1091;&#1083;&#1100;&#1090;&#1072;&#1090;.</text>

  <!-- Row 1 -->
  <rect x="72" y="1100" width="450" height="200" rx="32" fill="#FFFBFE" filter="url(#cardShadow)"/>
  <rect x="108" y="1140" width="64" height="64" rx="20" fill="#FCE4EC"/>
  <path d="M124 1172 C124 1160 136 1152 148 1160 C160 1152 172 1160 172 1172 C172 1188 148 1204 148 1204 C148 1204 124 1188 124 1172 Z" fill="#C2185B"/>
  <text x="196" y="1188" class="cardTitle">&#1058;&#1077;&#1089;&#1090; &#1083;&#1102;&#1073;&#1074;&#1080;</text>
  <text x="196" y="1228" class="cardCaption">&#1044;&#1074;&#1072; &#1080;&#1084;&#1077;&#1085;&#1080;</text>

  <rect x="558" y="1100" width="450" height="200" rx="32" fill="#FFFBFE" filter="url(#cardShadow)"/>
  <rect x="594" y="1140" width="64" height="64" rx="20" fill="#FCE4EC"/>
  <text x="682" y="1172" style="font-family: Inter, Roboto, Arial, sans-serif; font-size: 32px; font-weight: 700; fill: #C2185B;">%</text>
  <text x="682" y="1188" class="cardTitle">&#1050;&#1072;&#1083;&#1100;&#1082;&#1091;&#1083;&#1103;&#1090;&#1086;&#1088;</text>
  <text x="682" y="1228" class="cardCaption">&#1041;&#1099;&#1089;&#1090;&#1088;&#1099;&#1081; %</text>

  <!-- Row 2 -->
  <rect x="72" y="1328" width="450" height="200" rx="32" fill="#FFFBFE" filter="url(#cardShadow)"/>
  <rect x="108" y="1368" width="64" height="64" rx="20" fill="#FCE4EC"/>
  <circle cx="140" cy="1400" r="22" fill="none" stroke="#C2185B" stroke-width="5"/>
  <text x="196" y="1416" class="cardTitle">&#1055;&#1072;&#1088;&#1072;</text>
  <text x="196" y="1456" class="cardCaption">&#1057;&#1086;&#1074;&#1084;&#1077;&#1089;&#1090;&#1080;&#1084;&#1086;&#1089;&#1090;&#1100;</text>

  <rect x="558" y="1328" width="450" height="200" rx="32" fill="#FFFBFE" filter="url(#cardShadow)"/>
  <rect x="594" y="1368" width="64" height="64" rx="20" fill="#FCE4EC"/>
  <path d="M610 1392 L640 1372 L670 1392 L640 1428 Z" fill="#C2185B"/>
  <text x="682" y="1416" class="cardTitle">&#1055;&#1086;&#1073;&#1077;&#1076;&#1072;</text>
  <text x="682" y="1456" class="cardCaption">&#1042; &#1083;&#1102;&#1073;&#1074;&#1080;</text>

  <!-- Row 3 -->
  <rect x="72" y="1556" width="450" height="200" rx="32" fill="#FFFBFE" filter="url(#cardShadow)"/>
  <rect x="108" y="1596" width="64" height="64" rx="20" fill="#FCE4EC"/>
  <text x="128" y="1642" style="font-family: Inter, Roboto, Arial, sans-serif; font-size: 28px; font-weight: 800; fill: #C2185B;">Aa</text>
  <text x="196" y="1644" class="cardTitle">&#1055;&#1086; &#1073;&#1091;&#1082;&#1074;&#1072;&#1084;</text>
  <text x="196" y="1684" class="cardCaption">&#1057;&#1082;&#1088;&#1099;&#1090;&#1099;&#1077; &#1089;&#1080;&#1084;&#1074;&#1086;&#1083;&#1099;</text>

  <rect x="558" y="1556" width="450" height="200" rx="32" fill="#FFFBFE" filter="url(#cardShadow)"/>
  <rect x="594" y="1596" width="64" height="64" rx="20" fill="#FCE4EC"/>
  <circle cx="626" cy="1628" r="20" fill="none" stroke="#C2185B" stroke-width="5"/>
  <path d="M626 1612 L626 1600 M626 1656 L626 1668 M602 1628 L590 1628 M650 1628 L662 1628" stroke="#C2185B" stroke-width="4" stroke-linecap="round"/>
  <text x="682" y="1644" class="cardTitle">&#1050;&#1086;&#1083;&#1077;&#1089;&#1086;</text>
  <text x="682" y="1684" class="cardCaption">&#1057;&#1083;&#1091;&#1095;&#1072;&#1081;&#1085;&#1086;&#1089;&#1090;&#1100;</text>

  <!-- Zodiac full width -->
  <rect x="72" y="1784" width="936" height="160" rx="32" fill="#FCE4EC" filter="url(#cardShadow)"/>
  <circle cx="140" cy="1864" r="36" fill="#FFFFFF"/>
  <circle cx="140" cy="1864" r="24" fill="none" stroke="#C2185B" stroke-width="5"/>
  <text x="200" y="1856" class="cardTitle" fill="#880E4F">&#1047;&#1086;&#1076;&#1080;&#1072;&#1082;</text>
  <text x="200" y="1896" class="cardCaption" fill="#880E4F">&#1042;&#1099;&#1073;&#1077;&#1088;&#1080;&#1090;&#1077; &#1076;&#1074;&#1072; &#1079;&#1085;&#1072;&#1082;&#1072; &#1080; &#1089;&#1088;&#1072;&#1074;&#1085;&#1080;&#1090;&#1077; &#1089;&#1086;&#1074;&#1084;&#1077;&#1089;&#1090;&#1080;&#1084;&#1086;&#1089;&#1090;&#1100;</text>

  <rect x="72" y="2172" width="936" height="88" rx="44" fill="#C2185B"/>
  <text x="540" y="2228" text-anchor="middle" class="buttonText">&#1044;&#1072;&#1083;&#1077;&#1077;</text>
  <circle cx="486" cy="2330" r="9" fill="#CAC4D0"/>
  <circle cx="540" cy="2330" r="9" fill="#C2185B"/>
  <circle cx="594" cy="2330" r="9" fill="#CAC4D0"/>
</svg>
