<?xml version="1.0" encoding="UTF-8"?>
<svg width="1080" height="2400" viewBox="0 0 1080 2400" fill="none" xmlns="http://www.w3.org/2000/svg">
  <defs>
    <filter id="cardShadow" x="-20%" y="-20%" width="140%" height="150%" color-interpolation-filters="sRGB">
      <feDropShadow dx="0" dy="16" stdDeviation="24" flood-color="#1C1B1F" flood-opacity="0.08"/>
      <feDropShadow dx="0" dy="2" stdDeviation="7" flood-color="#C2185B" flood-opacity="0.12"/>
    </filter>
    <linearGradient id="bgGlow" x1="132" y1="0" x2="988" y2="850" gradientUnits="userSpaceOnUse">
      <stop stop-color="#FFF0F5"/>
      <stop offset="0.45" stop-color="#FFFBFE"/>
      <stop offset="1" stop-color="#FCE4EC"/>
    </linearGradient>
    <linearGradient id="heroGradient" x1="72" y1="360" x2="1008" y2="1260" gradientUnits="userSpaceOnUse">
      <stop stop-color="#C2185B"/>
      <stop offset="0.52" stop-color="#E91E63"/>
      <stop offset="1" stop-color="#F8BBD0"/>
    </linearGradient>
    <style type="text/css"><![CDATA[
      .appTitle { font-family: Inter, Roboto, Arial, sans-serif; font-size: 34px; font-weight: 760; fill: #1C1B1F; }
      .skip { font-family: Inter, Roboto, Arial, sans-serif; font-size: 27px; font-weight: 680; fill: #C2185B; }
      .section { font-family: Inter, Roboto, Arial, sans-serif; font-size: 21px; font-weight: 760; letter-spacing: 3px; fill: #C2185B; }
      .heroKicker { font-family: Inter, Roboto, Arial, sans-serif; font-size: 23px; font-weight: 780; letter-spacing: 3px; fill: #FFFFFF; opacity: 0.88; }
      .heroTitle { font-family: Inter, Roboto, Arial, sans-serif; font-size: 58px; font-weight: 830; letter-spacing: -1.4px; fill: #FFFFFF; }
      .heroBody { font-family: Inter, Roboto, Arial, sans-serif; font-size: 29px; font-weight: 450; fill: #FFFFFF; opacity: 0.92; }
      .headline { font-family: Inter, Roboto, Arial, sans-serif; font-size: 54px; font-weight: 800; letter-spacing: -1.1px; fill: #1C1B1F; }
      .body { font-family: Inter, Roboto, Arial, sans-serif; font-size: 29px; font-weight: 450; fill: #625B71; }
      .title { font-family: Inter, Roboto, Arial, sans-serif; font-size: 31px; font-weight: 740; fill: #1C1B1F; }
      .caption { font-family: Inter, Roboto, Arial, sans-serif; font-size: 21px; font-weight: 470; fill: #625B71; }
      .buttonText { font-family: Inter, Roboto, Arial, sans-serif; font-size: 29px; font-weight: 760; fill: #FFFFFF; }
    ]]></style>
  </defs>

  <rect width="1080" height="2400" fill="url(#bgGlow)"/>
  <circle cx="888" cy="168" r="246" fill="#FCE4EC" opacity="0.5"/>
  <circle cx="126" cy="826" r="204" fill="#F8BBD0" opacity="0.2"/>
  <circle cx="978" cy="2050" r="314" fill="#FCE4EC" opacity="0.32"/>

  <rect x="0" y="0" width="1080" height="96" fill="#FFFBFE" opacity="0.68"/>
  <text x="78" y="62" class="caption" fill="#1C1B1F">9:41</text>
  <rect x="892" y="43" width="58" height="22" rx="8" stroke="#1C1B1F" stroke-width="3" opacity="0.72"/>
  <rect x="955" y="49" width="6" height="10" rx="3" fill="#1C1B1F" opacity="0.72"/>
  <rect x="900" y="49" width="40" height="10" rx="5" fill="#1C1B1F" opacity="0.72"/>

  <text x="72" y="176" class="appTitle">Love Tester</text>
  <text x="906" y="176" class="skip">&#1055;&#1088;&#1086;&#1087;&#1091;&#1089;&#1090;&#1080;&#1090;&#1100;</text>

  <rect x="72" y="238" width="936" height="12" rx="6" fill="#E7E0EC"/>
  <rect x="72" y="238" width="312" height="12" rx="6" fill="#C2185B"/>
  <text x="72" y="302" class="section">EKRAN 2 / ONBOARDING</text>

  <rect x="72" y="356" width="936" height="806" rx="54" fill="url(#heroGradient)" filter="url(#cardShadow)"/>
  <circle cx="832" cy="542" r="150" fill="#FFFFFF" opacity="0.12"/>
  <circle cx="222" cy="1018" r="112" fill="#FFFFFF" opacity="0.1"/>
  <g transform="translate(540 720)">
    <path d="M0 80 C0 28 -56 -12 -96 36 C-136 -12 -192 28 -192 80 C-192 148 -96 220 0 280 C96 220 192 148 192 80 C192 28 136 -12 96 36 C56 -12 0 28 0 80 Z" fill="#FFFFFF" opacity="0.22"/>
    <path d="M0 64 C0 24 -44 -8 -76 28 C-108 -8 -152 24 -152 64 C-152 120 -76 176 0 224 C76 176 152 120 152 64 C152 24 108 -8 76 28 C44 -8 0 24 0 64 Z" fill="#FFFFFF" opacity="0.95"/>
  </g>
  <text x="144" y="920" class="heroKicker">&#1055;&#1056;&#1048;&#1042;&#1045;&#1058;&#1057;&#1058;&#1042;&#1048;&#1045;</text>
  <text x="144" y="1000" class="heroTitle">&#1055;&#1088;&#1086;&#1074;&#1077;&#1088;&#1100;&#1090;&#1077;</text>
  <text x="144" y="1068" class="heroTitle" style="font-size: 48px;">&#1089;&#1074;&#1086;&#1102; &#1083;&#1102;&#1073;&#1086;&#1074;&#1100;</text>
  <text x="144" y="1136" class="heroBody">&#1042;&#1074;&#1077;&#1076;&#1080;&#1090;&#1077; &#1080;&#1084;&#1077;&#1085;&#1072; &#1080; &#1089;&#1084;&#1086;&#1090;&#1088;&#1080;&#1090;&#1077;</text>
  <text x="144" y="1176" class="heroBody">&#1087;&#1088;&#1086;&#1094;&#1077;&#1085;&#1090; &#1089;&#1086;&#1074;&#1084;&#1077;&#1089;&#1090;&#1080;&#1084;&#1086;&#1089;&#1090;&#1080; &#1079;&#1072; &#1089;&#1077;&#1082;&#1091;&#1085;&#1076;&#1099;.</text>
  <rect x="144" y="1240" width="240" height="56" rx="28" fill="#FFFFFF" opacity="0.2"/>
  <text x="168" y="1276" style="font-family: Inter, Roboto, Arial, sans-serif; font-size: 23px; font-weight: 760; fill: #FFFFFF;">&#1057;&#1090;&#1088;&#1072;&#1085;&#1080;&#1094;&#1072; 1 &#1080;&#1079; 3</text>

  <text x="72" y="1280" class="headline">&#1041;&#1099;&#1089;&#1090;&#1088;&#1086; &#1080; &#1074;&#1077;&#1089;&#1077;&#1083;&#1086;</text>
  <text x="72" y="1342" class="body">&#1055;&#1088;&#1080;&#1083;&#1086;&#1078;&#1077;&#1085;&#1080;&#1077; &#1087;&#1086;&#1084;&#1086;&#1075;&#1072;&#1077;&#1090; &#1091;&#1079;&#1085;&#1072;&#1090;&#1100;, &#1085;&#1072;&#1089;&#1082;&#1086;&#1083;&#1100;&#1082;&#1086;</text>
  <text x="72" y="1382" class="body">&#1093;&#1086;&#1088;&#1086;&#1096;&#1086; &#1083;&#1080; &#1074;&#1099; &#1089;&#1074;&#1103;&#1079;&#1072;&#1085;&#1099; &#1089; &#1073;&#1083;&#1080;&#1079;&#1082;&#1080;&#1084; &#1095;&#1077;&#1083;&#1086;&#1074;&#1077;&#1082;&#1086;&#1084;.</text>

  <rect x="72" y="1460" width="286" height="354" rx="38" fill="#FFFBFE" filter="url(#cardShadow)"/>
  <path d="M112 1540 C112 1520 128 1508 144 1520 C160 1508 176 1520 176 1540 C176 1564 144 1588 144 1588 C144 1588 112 1564 112 1540 Z" fill="#C2185B"/>
  <text x="112" y="1660" class="title">&#1058;&#1077;&#1089;&#1090; &#1083;&#1102;&#1073;&#1074;&#1080;</text>
  <text x="112" y="1708" class="caption">&#1044;&#1074;&#1072; &#1080;&#1084;&#1077;&#1085;&#1080;,</text>
  <text x="112" y="1738" class="caption">&#1086;&#1076;&#1080;&#1085; &#1088;&#1077;&#1079;&#1091;&#1083;&#1100;&#1090;&#1072;&#1090;.</text>
  <rect x="112" y="1772" width="74" height="14" rx="7" fill="#C2185B"/>

  <rect x="397" y="1460" width="286" height="354" rx="38" fill="#FFFBFE" filter="url(#cardShadow)"/>
  <rect x="437" y="1510" width="78" height="78" rx="26" fill="#FCE4EC"/>
  <circle cx="476" cy="1548" r="18" fill="none" stroke="#C2185B" stroke-width="5"/>
  <text x="437" y="1660" class="title">&#1047;&#1086;&#1076;&#1080;&#1072;&#1082;</text>
  <text x="437" y="1708" class="caption">&#1047;&#1085;&#1072;&#1082;&#1080; &#1080;</text>
  <text x="437" y="1738" class="caption">&#1089;&#1086;&#1074;&#1084;&#1077;&#1089;&#1090;&#1080;&#1084;&#1086;&#1089;&#1090;&#1100;.</text>
  <rect x="437" y="1772" width="74" height="14" rx="7" fill="#CAC4D0"/>

  <rect x="722" y="1460" width="286" height="354" rx="38" fill="#FFFBFE" filter="url(#cardShadow)"/>
  <rect x="762" y="1510" width="78" height="78" rx="26" fill="#FCE4EC"/>
  <circle cx="801" cy="1549" r="22" fill="none" stroke="#C2185B" stroke-width="5"/>
  <path d="M801 1535 L801 1522 M801 1563 L801 1576 M779 1549 L766 1549 M822 1549 L835 1549" stroke="#C2185B" stroke-width="5" stroke-linecap="round"/>
  <text x="762" y="1660" class="title">&#1050;&#1086;&#1083;&#1077;&#1089;&#1086;</text>
  <text x="762" y="1708" class="caption">&#1057;&#1083;&#1091;&#1095;&#1072;&#1081;&#1085;&#1072;&#1103;</text>
  <text x="762" y="1738" class="caption">&#1092;&#1072;&#1085;&#1090;&#1072;&#1079;&#1080;&#1103;.</text>
  <rect x="762" y="1772" width="74" height="14" rx="7" fill="#CAC4D0"/>

  <rect x="72" y="1870" width="936" height="226" rx="38" fill="#FCE4EC" filter="url(#cardShadow)"/>
  <text x="120" y="1948" class="section" fill="#880E4F">&#1041;&#1045;&#1047; &#1056;&#1045;&#1043;&#1048;&#1057;&#1058;&#1056;&#1040;&#1062;&#1048;&#1048;</text>
  <text x="120" y="2004" class="title" fill="#880E4F">&#1053;&#1072;&#1095;&#1085;&#1080;&#1090;&#1077; &#1089;&#1088;&#1072;&#1079;&#1091;</text>
  <text x="120" y="2052" style="font-family: Inter, Roboto, Arial, sans-serif; font-size: 25px; font-weight: 450; fill: #880E4F; opacity: 0.84;">&#1048;&#1084;&#1077;&#1085;&#1072; &#1086;&#1089;&#1090;&#1072;&#1102;&#1090;&#1089;&#1103; &#1085;&#1072; &#1091;&#1089;&#1090;&#1088;&#1086;&#1081;&#1089;&#1090;&#1074;&#1077;. &#1040;&#1082;&#1082;&#1072;&#1091;&#1085;&#1090; &#1085;&#1077; &#1085;&#1091;&#1078;&#1077;&#1085;.</text>

  <rect x="72" y="2172" width="936" height="88" rx="44" fill="#C2185B"/>
  <text x="540" y="2228" text-anchor="middle" class="buttonText">&#1044;&#1072;&#1083;&#1077;&#1077;</text>
  <circle cx="486" cy="2330" r="9" fill="#C2185B"/>
  <circle cx="540" cy="2330" r="9" fill="#CAC4D0"/>
  <circle cx="594" cy="2330" r="9" fill="#CAC4D0"/>
</svg>
